<?xml version="1.0" encoding="UTF-8"?>
<svg viewBox="0 0 255.99998 228.45786" xmlns="http://www.w3.org/2000/svg" xmlns:xlink="http://www.w3.org/1999/xlink">
 <defs>
  <linearGradient id="a">
   <stop stop-color="#faffff" offset="0"/>
   <stop stop-color="#faffff" stop-opacity="0" offset="1"/>
  </linearGradient>
  <linearGradient id="f" x1="381.04" x2="-671.82" y1="866.06" y2="1649.6" gradientTransform="scale(1.0898,.9176)" gradientUnits="userSpaceOnUse">
   <stop stop-color="#fff" offset="0"/>
   <stop stop-color="#fff" stop-opacity="0" offset="1"/>
  </linearGradient>
  <linearGradient id="e" x1="454.88" x2="489.91" y1="324.08" y2="312.34" gradientUnits="userSpaceOnUse">
   <stop offset="0"/>
   <stop stop-opacity="0" offset="1"/>
  </linearGradient>
  <linearGradient id="d" x1="305.42" x2="105.45" y1="475.46" y2="426.22" gradientTransform="matrix(1.2473 0 0 .80176 20.845 14.89)" gradientUnits="userSpaceOnUse">
   <stop stop-color="#340302" offset="0"/>
   <stop stop-color="#340302" stop-opacity="0" offset="1"/>
  </linearGradient>
  <radialGradient id="c" cx="141.74" cy="547.27" r="112.37" gradientTransform="matrix(1.1216 0 0 .89155 20.845 14.89)" gradientUnits="userSpaceOnUse" xlink:href="#a"/>
  <radialGradient id="b" cx="433.03" cy="339.84" r="126.04" fx="430.76" fy="338.7" gradientUnits="userSpaceOnUse" xlink:href="#a"/>
 </defs>
 <g transform="matrix(1.011 0 0 1.011 -239.78 -271.73)">
  <path d="m385.78 269.26c-19.169 1.8899-36.735 5.3966-52.844 11.156 0.21835 0.0706 0.49701 0.11623 0.71875 0.1875-5.2603 1.7885-8.9652 3.4987-19.344 10.656-10.799 7.5595-24.91 22.226-29.5 32.125v1.75c-0.68389-0.36005-1.6142-0.80253-2.2812-1.1562-12.979 23.914-28.018 53.878-37.969 80.938l-0.28125-0.0312 0.15626 0.34375 2.4062 5.4688c-0.0938 0.23871-0.1851 0.47841-0.28125 0.71875-0.62999 2.2498-2e-3 4.4126 1.4375 5.3125 0.09 1.7099-0.10503 4.0476-0.37501 5.9375-5.3996 0.98994-9.2425 3.3164-9.0625 5.6563-1e-5 0.09 3e-5 0.18751 0 0.1875-1e-5 0.09 3e-5 0.0937 0 0.0937-1e-5 0.35998 0.16378 0.73378 0.34375 1.0938h-0.90624c-0.27 2.6998-0.34376 5.4677-0.34375 8.4375-3e-5 14.37 3.4718 26.275 7.9375 28.156l0.0312 0.125c-0.13483-0.0562-0.26216-0.053-0.40625-0.125-0.09 0.26998-0.19127 0.54252-0.28125 0.8125-4.2297 14.849 39.774 27 98 27 30.058 0 60.114-2.2491 80.812-7.4688 19.529-4.7697 30.708-12.332 32.687-19.531 0.35996-1.2599 0.42246-2.5176 0.0625-3.6875-0.0514 0.0464-0.10484 0.0831-0.15626 0.125l-0.0312-0.0312c12.392-10.946 23.028-32.448 29.625-59.562 4.771-19.791 4.6437-37.594 1.0625-49.906v-1.6875c0.0806-0.15269 0.20744-0.24634 0.28125-0.40625 0.17997-1.7999 0.45253-3.5089 0.8125-5.2188 0.35996-2.0699 0.71006-4.1451 1.25-6.125 0.35997-2.7898 0.37739-3.5077-1.0625-5.9375-7.8295-7.7395-13.679-15.123-20.969-23.312-13.679-15.659-32.233-28.53-54.281-36-9.0894-3.1498-18.251-5.1038-27.25-6.0938zm102.5 78.094c-3e-5 0.09 0.0937 0.28876 0.0937 0.46874 0-0.17998-0.0937-0.37875-0.0937-0.46874zm0.15625 0.625c0.09 0.26999 0.19127 0.54626 0.28125 0.90625-0.09-0.35999-0.19126-0.63628-0.28125-0.90625z" fill="#f8fdfc" stroke="#000"/>
  <path d="m252.34526,420.43082c-1.70989-.71996-1.61989-.26999-2.87981,1.07992-3.41977,3.77975-5.9396,7.01953-8.54942,11.69921-.80995,1.5299-2.42984-2.15985-2.87981-3.32977h.89994c-.17999-.35998-.35997-.71995-.35997-1.07993v-.09-.17999c-.17999-2.33984 3.68975-4.67968 9.08938-5.66962 .26998-1.88987.44997-4.22971.35998-5.9396-1.4399-.89994-2.06986-3.05979-1.4399-5.30964l.53996-1.34991c.09.09.17999.09.26998.17999 .98993.44997 2.06986.89994 3.05979,1.4399 .26999.09.53997.26998.80995.35998 .09,0 .17999.09.17999.09l.53996.26998h.09c0,0 .09,0 .09.09 .17999.09.44997.17999.62996.26998h.09c.98993.44997 2.06986.89994 3.14979,1.34991v.09h.09c.44997.17999.98993.44997 1.4399.62996h.09c.09,0 .09,0 .09.09 .17999,0 .26998.09.35998.09 .17999.09.26998.09.35997.17999h.17999c1.88987.80994 3.77975,1.52989 5.66962,2.24984 1.97987.62996 3.95973,1.34991 5.9396,1.97987 7.28951,2.24985 14.759,3.95973 22.13851,4.85967h.09 .17999c.09,0 .17998.09.26998.09h.17999 .26998 .17999c.09.09.26998.09.35997.09h.17999 .09 .17999c.17999.09.35998.09.53997.09h.09 .17999 .09c.09,0 .17999.09.26998.09h.09 .53996 .09 .09c.09,0 .09,0 .17999.09h.53996 .09c.26999,0 .53997,0 .71995.09h.09 .89994c.89994.09 1.70988.09 2.51983.09 .44997.09.80994.09 1.25991.17999h.26999 .35997 .26998 .35998c2.8798,0 5.75961-.62996 8.45943-1.70989 .09,0 .17999,0 .35997-.09 .09,0 .17999-.09.26999-.09 .09-.09.17998-.09.26998-.17999 .09,0 .17998-.09.26998-.09 .17999-.09.26998-.09.35997-.17998 .09,0 .17999-.09.26999-.09 .09-.09.17998-.09.26998-.17999 .09,0 .17999-.09.26998-.09 .09-.09.17999-.17999.35998-.17999 .09-.09.17998-.09.26998-.17999 .09,0 .17999-.09.26998-.17998 .09,0 .17999-.09.26998-.09 .09-.09.17999-.17999.26998-.17999 .09-.09.17999-.09.26998-.17998s.17999-.09.26999-.17999 .17998-.09.26998-.17999 .17999-.09.26998-.17999 .17999-.09.26998-.17998c.89994-.62996 1.79988-1.43991 2.60983-2.24985 4.13972-3.86974 9.26937-10.88927 14.30903-19.2587l17.45882-23.57841c-10.3493,16.73887-21.05858,33.56773-32.93778,50.3066-1.70988,2.42984-1.25991,4.58969.44997,5.57963 .62996.26998 1.43991.53996 2.24985.62995 9.80934,1.43991 20.42862,2.51983 30.77793,3.14979 6.11958.35998 12.14918.71995 18.08878.62996 6.20958,0 12.14918-.35998 18.17877-1.97987 6.38957-1.79988 10.7338-4.18877 19.7332-10.57834s13.22504-11.73808 17.29524-18.2933 8.18124-13.88962 6.73729-22.29792c-1.43464-8.35404-6.00498-11.9324-12.57859-17.82295-6.43789-5.76892-14.20677-9.2041-21.94625-16.49361-2.28664.28225-2.42984-.17999-3.59976-.17999-1.34991-.89994-2.60982-1.70988-3.95973-2.42983l4.58969-2.15986c2.60982-1.16992 8.15662.71995 10.31648,2.42984 18.48989,16.38719 43.94156,37.53181 21.99115,64.35811-7.67401,8.05852-16.63662,16.39927-30.40569,24.57231-10.88927,4.76968-27.34174,3.75522-41.92075,2.94527-20.24864-1.07993-42.02717-2.78981-62.99575-6.74954-2.42984,8.8194-8.63942,9.08938-15.83894,5.8496-7.55949-3.32977-13.85906-10.25931-13.58908-12.41916 0-.17999.09-.44997.26998-.62996-3.50976-1.16992-7.01952-2.42984-10.43929-3.77974zm42.9271,4.3197c.09,0 .17999.09.26998.09" fill="#00000f" stroke="#000"/>
  <path d="m486.87 353.48c3.7797 12.329 3.9597 30.508-0.89994 50.667-8.9994 36.988-25.468 63.716-43.737 67.135-0.26998 0-0.53996 0.09-0.80995 0.09-28.348 8.0994-93.414 11.159-124.1 8.9994-29.068-2.0699-54.086-7.6495-69.925-13.589-0.17999 0.09-0.35997 0.09-0.53996 0.09-5.0397 0-9.1794-12.869-9.1794-28.528 0-2.9698 0.09-5.7596 0.35997-8.4594h0.89994c-0.17999-0.35998-0.35997-0.71995-0.35997-1.0799v-0.26999c-0.17999-2.3398 3.6898-4.6797 9.0894-5.6696 0.26998-1.8899 0.44997-4.2297 0.35998-5.9396-1.4399-0.89994-2.0699-3.0598-1.4399-5.3096l0.53996-1.3499c0.09 0.09 0.17999 0.09 0.26998 0.17999 16.199 8.0095 35.908 14.309 53.996 14.669 6.5696 0.80995 14.039-1.7999 18.719-6.4796 4.2297-3.8697 9.3594-11.069 14.489-19.529 4.8597-8.0994 8.6394-15.749 10.349-21.329 1.7099-5.1296 1.1699-11.069-1.6199-15.749-1.4399-3.5998-8.9994-9.5394-18.809-14.669-13.409-6.9295-26.548-14.489-39.687-21.779v-1.9799c4.5897-9.8993 18.719-24.568 29.518-32.128 10.439-7.1995 14.129-8.9094 19.439-10.709 2.9698 0.89994 6.2096 1.8899 11.249 2.2498 19.799-3.9597 41.757-2.7898 63.446 4.5897 35.548 12.149 62.186 38.067 73.615 67.585 0.98993 0.26998 2.6098 0.17998 3.5098-0.09 0.44997-0.44997 0.89994-0.98993 1.2599-1.6199z" fill="#393938" fill-opacity=".8432" stroke="#000"/>
  <path d="m486.96 353.41c3.7797 12.329 3.9597 30.508-0.89994 50.667-8.9994 36.988-25.468 63.716-43.737 67.135-0.26998 0-0.53996 0.09-0.80995 0.09-28.348 8.0994-93.414 11.159-124.1 8.9994-29.068-2.0699-54.086-7.6495-69.925-13.589-0.17999 0.09-0.35997 0.09-0.53996 0.09-5.0397 0-9.1794-12.869-9.1794-28.528 0-2.9698 0.09-5.7596 0.35997-8.4594h0.89994c-0.17998-0.35998-0.35997-0.71995-0.35997-1.0799v-0.26999c-0.17999-2.3398 3.6898-4.6797 9.0894-5.6696 0.26999-1.8899 0.44997-4.2297 0.35998-5.9396-1.4399-0.89994-2.0699-3.0598-1.4399-5.3096l0.53996-1.3499c0.09 0.09 0.17999 0.09 0.26998 0.17999 16.199 8.0095 35.908 14.309 53.996 14.669 6.5696 0.80994 14.039-1.7999 18.719-6.4796 4.2297-3.8697 9.3594-11.069 14.489-19.529 4.8597-8.0994 8.6394-15.749 10.349-21.329 1.7099-5.1296 1.1699-11.069-1.6199-15.749-1.4399-3.5998-8.9994-9.5394-18.809-14.669-13.409-6.9295-26.548-14.489-39.687-21.779v-1.9799c4.5897-9.8993 18.719-24.568 29.518-32.128 10.439-7.1995 14.129-8.9094 19.439-10.709 2.9698 0.89994 6.2096 1.8899 11.249 2.2498 19.799-3.9597 41.757-2.7898 63.446 4.5897 35.548 12.149 62.186 38.067 73.615 67.585 0.98993 0.26998 2.6098 0.17998 3.5098-0.09 0.44997-0.44997 0.89994-0.98993 1.2599-1.6199z" fill="url(#b)" opacity=".722" stroke="#000"/>
  <path d="m264.13446,399.01226c-.26998,0-.62996.09-.89994.17999 .26998-.09.62996-.17999.89994-.17999zm62.54578.80995c-3.50976,5.48963-7.01952,10.16931-9.98932,12.86913-1.88988,1.97986-4.94967,3.41977-8.27945,3.95973-10.52929,1.61989-23.12844-1.25991-33.20776-3.50976-7.01952-1.61989-13.49908-3.86974-17.45882-5.75961 5.03966-3.95974 27.44815-3.68976 51.20655-3.23979 6.02959.17999 13.04912-.26998 17.7288-4.3197zm-69.11534,7.46949c-.09,0-.09,0-.17998-.09 .09.09.09.09.17998.09zm-1.16992-.53996c-.09,0-.09-.09-.17998-.09 .09,0 .09.09.17998.09zm-.80994-.44997c-.26998-.09-.53997-.26998-.71995-.44997 .17998.17999.44997.35997.71995.44997zm-.89994-.53996c0,0-.09,0-.09-.09 0,.09.09.09.09.09zm-.35998-.17999v-.09m-.26998-.17998m-.26998-.26999zm-.09,0v-.09 .09zm-.09-.17998zm-.09-.09zm0-.09c0-.09-.09-.26998-.09-.35998 0,.09.09.26998.09.35998zm-.09-.35998v-.35997 .35997zm0-.35997c0-.17999 0-.26999.09-.35998-.09.09-.09.17999-.09.35998zm.09-.35998c0-.17999.09-.26998.09-.35997 0,.09-.09.17998-.09.35997zm.09-.35997c.09-.17999.17999-.26999.17999-.35998 0,.09-.09.17999-.17999.35998zm.17999-.35998c.09-.09.17999-.17999.26998-.35998-.09.17999-.17999.26999-.26998.35998zm.26998-.35998c.09-.09.17999-.17998.35998-.26998-.17999.09-.26998.17999-.35998.26998zm.35998-.26998c.09-.09.26998-.17999.35997-.26998-.09.09-.26998.17999-.35997.26998zm.35997-.26998c.17999-.09.26998-.26998.44997-.35998-.17999.09-.26998.26999-.44997.35998zm.44997-.35998c.17999-.09.26998-.17998.44997-.26998-.17999.09-.26998.17999-.44997.26998zm.53997-.26998c.09-.09.26998-.17999.44997-.26998-.17999.09-.35998.17999-.44997.26998zm.53996-.26998c.17999-.09.35998-.17999.53996-.17999-.17998,0-.35997.09-.53996.17999zm.53996-.26998c.17999,0 .44997-.09.62996-.17999-.17999.09-.44997.17999-.62996.17999zm.71995-.17999c.89994-.35997 1.88988-.62996 2.9698-.89994-1.07992.26998-2.06986.53997-2.9698.89994zm2.9698-.89994c.26999-.09.53997-.17999.89994-.17999-.35997,0-.62995.09-.89994.17999zm.89994-.17999c.26999-.09.53997-.17998.89994-.17998 .26998-.09.53997-.17999.89994-.17999" fill="#00000f" fill-opacity=".9412" stroke="#000"/>
  <path d="m257.74 407.38c5.0397-3.9597 27.448-3.6898 51.207-3.2398 6.0296 0.17999 13.049-0.26998 17.729-4.3197 0.80995-1.1699 1.5299-2.4298 2.2498-3.5998 4.2297-7.0195 7.2895-13.319 8.7294-17.999 1.5299-4.3197 1.0799-9.3594-1.3499-13.319-1.2599-3.0598-9.8093-8.9094-17.909-13.409-11.069-6.2096-22.858-12.509-33.658-19.079 0.26998 1.2599 0.44997 2.2498-0.26998 2.3398-1.4399 0.09-0.71995 1.1699-1.3499 3.7798-0.17999 0.80994 0.35998 1.5299 0.53996 1.8899 5.6696 4.0497 11.699 7.7395 18.359 10.799 4.2297 1.6199 8.5494 3.2398 12.779 4.4997 0.35998 0.17999 0.71996 0.17999 1.0799 0.26998h0.89994c0.44997 0 0.71995 0.09 1.0799 0.26998 3.2398 1.0799 6.2096 2.6098 8.7294 4.7697 2.5198 2.0699 3.7797 4.4997 2.6998 7.6495-2.2498 6.2096-6.0296 12.419-9.8093 17.729-3.7798 5.4896-7.7395 8.7294-15.389 9.5394l-0.89994 0.09 0.71995 0.26998c-4.1397 0.80995-53.006-0.09-50.397 8.3694 0.09 0.53996 1.7099 1.5299 4.2297 2.6998z" fill="#7d7b7e" fill-opacity=".9412" stroke="#000"/>
  <path d="m343.33 362.02c2.7898 4.6797 3.3298 10.619 1.6199 15.749-1.7099 5.5796-5.4896 13.229-10.349 21.329-5.1297 8.4594-10.259 15.659-14.489 19.529-4.6797 4.6797-12.149 7.2895-18.719 6.4796-18.089-0.35998-37.797-6.6596-53.996-14.669-0.89994-1.1699-2.0699-2.0699-2.0699-3.1498 0.26998-10.889 11.699-11.969 57.506-11.429l1.0799 0.44997c-4.1397 0.80995-53.006-0.09-50.397 8.3694 0.26998 1.3499 10.169 5.8496 21.689 8.4594 10.079 2.2498 22.678 5.1296 33.208 3.5098 3.3298-0.53996 6.3896-1.9799 8.2794-3.9597 3.5998-3.3298 8.0095-9.5394 12.239-16.469 4.2297-7.0195 7.2895-13.319 8.7294-17.999 1.5299-4.3197 1.0799-9.3594-1.3499-13.319-1.2599-3.0598-9.8093-8.9094-17.909-13.409-12.419-6.9295-25.648-14.039-37.527-21.509-0.98993-1.0799 0.09-1.6199 0.53997-2.5198 0.44997-0.98994 0.53996-2.2498 1.7999-1.7099 0.89994 0.35998 1.2599 0.26998 1.7099-0.17999 13.139 7.2895 26.278 14.849 39.597 21.779 9.8093 5.1297 17.369 11.069 18.809 14.669z" fill="#414141" fill-opacity=".9412" stroke="#000"/>
  <path d="m381.35 435.02c-88.387-1.8367-120.5-20.823-136.81-28.451 9.9492-27.14 25.066-57.237 38.093-81.241 31.538 16.724 82.095 40.609 131.41 63.933 7.8848 22.994-3.2806 39.933-32.699 45.76z" fill="url(#d)" fill-rule="evenodd" stroke="#300001" stroke-linecap="round" stroke-linejoin="round" stroke-width="2.374"/>
  <path d="m456.63 463.54c0.35997 1.1699 0.26998 2.4298-0.09 3.6898-1.9799 7.1995-13.139 14.759-32.668 19.529-20.699 5.2196-50.757 7.4695-80.815 7.4695-58.226 0-102.23-12.149-98.003-26.998l0.26998-0.80995c0.53996 0.26999 0.98993 0.44997 1.5299 0.44997 0.17999 0 0.35997 0 0.53996-0.09 15.839 5.9396 40.857 11.519 69.925 13.589 30.688 2.1599 95.754-0.89994 124.1-8.9994 0.26999 0 0.53997-0.09 0.80995-0.09 4.9497-0.98994 9.8093-3.5998 14.399-7.7395z" stroke="#000"/>
  <g transform="matrix(.08966 -.00771 .00771 .08966 331.19 263.58)" stroke="#000">
   <path d="m1007.4 1467.1c0 96-24 137-79 194-52 68-85 101-217 195-68 48-140 81-211 101-67 18-133 22-202 22-66 1-133-3-201-7-115-7-233-19-342-35-9-1-18-4-25-7-19-11-24-35-5-62 208-293 383-587 562-880 33-57 50-78 90-97 34-3 71-1 111 7 50 18 97 42 145 74 13 0 27 1 40 2 86 81 180 167 248 266 45 65 87 132 86 227z" fill="#020000"/>
   <path d="m1006.7 1465.7c0 96-24 137-79 194-52 68-85 101-217 195-68 48-140 81-211 101-67 18-133 22-202 22-66 1-133-3-201-7-115-7-233-19-342-35-9-1-18-4-25-7-19-11-24-35-5-62 208-293 383-587 562-880 33-57 50-78 90-97 34-3 71-1 111 7 50 18 97 42 145 74 13 0 27 1 40 2 86 81 180 167 248 266 45 65 87 132 86 227z" fill="url(#f)" opacity=".5021"/>
  </g>
  <path d="m244.99 407.04c-4.8323 7.2484-6.3192 13.939-7.2484 21.745 4.6464 2.4162 12.081 4.8323 20.073 4.4606 5.5757-2.602 10.036-6.3192 12.824-13.382-8.1777-3.7171-19.701-6.8767-25.648-12.824z" fill="#4f4e4f" fill-rule="evenodd"/>
  <g transform="matrix(.08999 -.00648 0 .08999 392.72 232.87)" fill="none" stroke="#7f8283">
   <path d="m-1672.5 1848.4 49.565 43.37 55.761 30.978 80.544 30.978 92.935 24.783" stroke-width="25.974"/>
   <path d="m-1689 1893.8 45.535 39.927 51.227 28.519 73.994 28.519 85.378 22.815" stroke-width="23.887"/>
   <path d="m-1703.2 1942.3 38.482 36.484 43.292 26.06 62.533 26.06 72.154 20.848" stroke-width="20.991"/>
   <path d="m-1717.5 1989 31.435 26.614 35.365 20.679 51.082 22.71 58.941 20.505" stroke-width="14.916"/>
  </g>
  <path d="m413.35 275.5c22.049 7.4695 40.587 20.339 54.266 35.998 7.2895 8.1894 13.139 15.569 20.969 23.308 1.4399 2.4298 1.4399 3.1498 1.0799 5.9396-0.53996 1.9799-0.89994 4.0497-1.2599 6.1196-0.35998 1.7099-0.62996 3.4198-0.80995 5.2196-0.53996 1.1699-1.2599 2.1599-2.0699 2.9698-0.89994 0.26998-2.5198 0.35998-3.5098 0.09-11.429-29.518-38.067-55.436-73.615-67.585-21.689-7.3795-43.647-8.5494-63.446-4.5897-5.3096-0.35997-8.6394-1.4399-11.699-2.4298 16.109-5.7596 33.658-9.2694 52.826-11.159 8.9994 0.98993 18.179 2.9698 27.268 6.1196zm75.055 71.455v0.09-0.09zm0.17998 0.53997c0 0.09 0.09 0.26998 0.09 0.44996 0-0.17998-0.09-0.35997-0.09-0.44996zm0.17999 0.62995c0.09 0.26998 0.17999 0.53996 0.26998 0.89994-0.09-0.35998-0.17998-0.62996-0.26998-0.89994z" fill="url(#e)" stroke="#000"/>
  <path d="m486.5 354.16c3.7797 12.329 3.9597 30.508-0.89994 50.667-8.9994 36.988-25.468 63.716-43.737 67.135-0.26998 0-0.53996 0.09-0.80995 0.09-28.348 8.0994-93.414 11.159-124.1 8.9994-29.068-2.0699-54.086-7.6495-69.925-13.589-0.17999 0.09-0.35997 0.09-0.53996 0.09-5.0397 0-9.1794-12.869-9.1794-28.528 0-2.9698 0.09-5.7596 0.35997-8.4594h0.89994c-0.17998-0.35998-0.35997-0.71995-0.35997-1.0799v-0.26999c-0.17999-2.3398 3.6898-4.6797 9.0894-5.6696 0.26999-1.8899 0.44997-4.2297 0.35998-5.9396-1.4399-0.89994-2.0699-3.0598-1.4399-5.3096l0.53996-1.3499c0.09 0.09 0.17999 0.09 0.26998 0.17999 16.199 8.0095 35.908 14.309 53.996 14.669 6.5696 0.80994 14.039-1.7999 18.719-6.4796 4.2297-3.8697 9.3594-11.069 14.489-19.529 4.8597-8.0994 8.6394-15.749 10.349-21.329 1.7099-5.1296 1.1699-11.069-1.6199-15.749-1.4399-3.5998-8.9994-9.5394-18.809-14.669-13.409-6.9295-26.548-14.489-39.687-21.779v-1.9799c4.5897-9.8993 18.719-24.568 29.518-32.128 10.439-7.1995 14.129-8.9094 19.439-10.709 2.9698 0.89994 6.2096 1.8899 11.249 2.2498 19.799-3.9597 41.757-2.7898 63.446 4.5897 35.548 12.149 62.186 38.067 73.615 67.585 0.98993 0.26998 2.6098 0.17998 3.5098-0.09 0.44997-0.44997 0.89994-0.98993 1.2599-1.6199z" fill="url(#c)" opacity=".4689"/>
 </g>
</svg>
